<?xml version="1.0" encoding="UTF-8" standalone="no"?>
<!-- Created with Inkscape (http://www.inkscape.org/) -->

<svg
   xmlns:dc="http://purl.org/dc/elements/1.1/"
   xmlns:cc="http://creativecommons.org/ns#"
   xmlns:rdf="http://www.w3.org/1999/02/22-rdf-syntax-ns#"
   xmlns:svg="http://www.w3.org/2000/svg"
   xmlns="http://www.w3.org/2000/svg"
   xmlns:sodipodi="http://sodipodi.sourceforge.net/DTD/sodipodi-0.dtd"
   xmlns:inkscape="http://www.inkscape.org/namespaces/inkscape"
   width="29.835501mm"
   height="30.448957mm"
   viewBox="0 0 29.835501 30.448957"
   version="1.1"
   id="svg8"
   inkscape:version="0.92.2 2405546, 2018-03-11"
   sodipodi:docname="codi-logo-white.svg">
  <defs
     id="defs2" />
  <sodipodi:namedview
     id="base"
     pagecolor="#ffffff"
     bordercolor="#666666"
     borderopacity="1.0"
     inkscape:pageopacity="0.0"
     inkscape:pageshadow="2"
     inkscape:zoom="2.8"
     inkscape:cx="57.092801"
     inkscape:cy="-18.25021"
     inkscape:document-units="mm"
     inkscape:current-layer="layer1"
     showgrid="false"
     fit-margin-top="0"
     fit-margin-left="0"
     fit-margin-right="0"
     fit-margin-bottom="0"
     inkscape:window-width="1920"
     inkscape:window-height="1025"
     inkscape:window-x="0"
     inkscape:window-y="27"
     inkscape:window-maximized="1" />
  <metadata
     id="metadata5">
    <rdf:RDF>
      <cc:Work
         rdf:about="">
        <dc:format>image/svg+xml</dc:format>
        <dc:type
           rdf:resource="http://purl.org/dc/dcmitype/StillImage" />
        <dc:title></dc:title>
      </cc:Work>
    </rdf:RDF>
  </metadata>
  <g
     inkscape:label="Layer 1"
     inkscape:groupmode="layer"
     id="layer1"
     transform="translate(0.01089343,0.00937977)">
    <path
       style="fill:#ffffff;stroke-width:0.04146826"
       d="M 6.7632112,27.632569 C 6.25547,27.566122 5.3976893,27.183806 4.8030443,26.758895 3.5028594,25.829826 2.5945544,24.113579 2.7458972,22.871883 2.7652437,22.713471 2.8263848,22.424229 2.8819262,22.229125 3.0928755,21.487675 3.1627185,20.859774 3.1600574,19.728744 3.1576085,18.860033 3.0966305,17.962759 2.9735318,17.001871 2.8485475,16.026339 2.8375927,14.625324 2.9483897,13.788082 3.2854531,11.241392 4.297001,9.0401133 5.9936649,7.1611197 7.7233074,5.2456046 10.062191,3.9253713 12.614586,3.4237932 c 0.937232,-0.1841827 1.71677,-0.2422465 2.898419,-0.2158962 0.581593,0.012979 1.150744,0.034448 1.264782,0.047754 0.500876,0.058447 1.922519,0.088577 2.609643,0.055345 0.868923,-0.04204 1.532987,-0.1440124 2.117738,-0.3251503 0.623771,-0.1932192 0.94977,-0.2337161 1.381726,-0.1716198 1.190506,0.1711137 2.502821,0.9741774 3.257037,1.993121 0.865022,1.1686293 1.126165,2.2398817 0.812656,3.3335498 -0.181277,0.6323583 -0.244516,1.0334249 -0.289862,1.8383008 -0.04759,0.8455115 0.0095,2.3550385 0.10323,2.7307095 0.180485,0.722886 0.24703,1.421031 0.24703,2.591766 0,0.974235 -0.01363,1.229256 -0.09331,1.75045 -0.6659,4.353832 -3.522377,7.93273 -7.608518,9.532752 -0.881895,0.345329 -2.074425,0.631485 -3.117924,0.748176 -0.629476,0.07036 -1.893564,0.07102 -2.488095,0.0016 -0.250883,-0.02947 -0.700528,-0.09902 -0.999205,-0.154592 -0.465188,-0.08655 -0.667353,-0.101034 -1.409921,-0.100993 -1.3006504,9e-5 -2.3518381,0.14309 -3.1037849,0.422258 -0.2854126,0.105965 -0.4036298,0.12598 -0.8109982,0.137327 -0.2622868,0.0073 -0.5421975,0.0049 -0.6220239,-0.0057 z m 2.9684087,-3.035191 c 0.2855431,-0.112544 0.9427661,-0.245822 1.4627191,-0.296612 0.657583,-0.06424 1.608308,-0.0529 1.962641,0.02335 0.406185,0.08743 1.335335,0.181685 1.796212,0.182199 1.800375,0.0016 3.780917,-0.62075 5.245734,-1.649481 0.647468,-0.454714 1.59692,-1.356657 2.038214,-1.936217 0.975377,-1.281001 1.579622,-2.710464 1.822628,-4.311857 0.07698,-0.507391 0.08526,-0.698798 0.0662,-1.534326 -0.01837,-0.804647 -0.03877,-1.039294 -0.129931,-1.493698 -0.08496,-0.423466 -0.113752,-0.717613 -0.134225,-1.371456 -0.03429,-1.09615 0.04955,-1.896789 0.262507,-2.5051972 0.03992,-0.1139969 0.06555,-0.3251176 0.06555,-0.5397159 C 24.189903,8.2378821 23.481106,7.0588041 22.55336,6.4420373 21.607614,5.8133034 20.827587,5.6439448 20.048563,5.8981991 19.309751,6.139319 19.108009,6.1591634 17.544958,6.1444128 13.613424,6.1073525 13.754931,6.0998425 12.578718,6.4079321 9.6528711,7.1743765 7.2554835,9.3963974 6.2644819,12.260278 6.0253538,12.951353 5.9042387,13.478221 5.808976,14.241849 c -0.1095317,0.878017 -0.1039155,1.211224 0.042366,2.511205 0.1999374,1.777412 0.1694158,2.94187 -0.1027319,3.91875 -0.1277924,0.458738 -0.1334657,0.811243 -0.019673,1.221926 0.2834045,1.022682 1.092811,1.981766 2.091747,2.478552 0.2411444,0.119924 0.6797936,0.275781 0.8915674,0.316784 0.2232103,0.04326 0.811333,-0.0097 1.0194008,-0.0917 z"
       id="path77"
       inkscape:connector-curvature="0" />
  </g>
</svg>
